<mxfile host="app.diagrams.net" agent="Mozilla/5.0 (X11; Linux x86_64) AppleWebKit/537.36 (KHTML, like Gecko) Chrome/139.0.0.0 Safari/537.36" version="28.1.1">
  <diagram name="PÃ¡gina-1" id="H0BG4LNVNIYukBq4Gqit">
    <mxGraphModel grid="1" page="1" gridSize="10" guides="1" tooltips="1" connect="1" arrows="1" fold="1" pageScale="1" pageWidth="583" pageHeight="827" background="none" math="0" shadow="0">
      <root>
        <mxCell id="0" />
        <mxCell id="1" parent="0" />
        <mxCell id="t6gTUN6EhMzDW9SRuxOW-1" value="API&amp;nbsp;&lt;div&gt;Go Lang&lt;/div&gt;" style="ellipse;shape=cloud;whiteSpace=wrap;html=1;" vertex="1" parent="1">
          <mxGeometry x="500" y="250" width="170" height="120" as="geometry" />
        </mxCell>
        <mxCell id="t6gTUN6EhMzDW9SRuxOW-2" value="" style="outlineConnect=0;dashed=0;verticalLabelPosition=bottom;verticalAlign=top;align=center;html=1;shape=mxgraph.aws3.alexa_enabled_device;fillColor=#5294CF;gradientColor=none;textShadow=0;" vertex="1" parent="1">
          <mxGeometry x="70" y="180" width="79.5" height="79.5" as="geometry" />
        </mxCell>
        <mxCell id="t6gTUN6EhMzDW9SRuxOW-4" value="" style="outlineConnect=0;dashed=0;verticalLabelPosition=bottom;verticalAlign=top;align=center;html=1;shape=mxgraph.aws3.alexa_enabled_device;fillColor=#5294CF;gradientColor=none;" vertex="1" parent="1">
          <mxGeometry x="240" y="180" width="79.5" height="79.5" as="geometry" />
        </mxCell>
        <mxCell id="t6gTUN6EhMzDW9SRuxOW-5" value="" style="outlineConnect=0;dashed=0;verticalLabelPosition=bottom;verticalAlign=top;align=center;html=1;shape=mxgraph.aws3.alexa_enabled_device;fillColor=#5294CF;gradientColor=none;" vertex="1" parent="1">
          <mxGeometry x="70" y="360" width="79.5" height="79.5" as="geometry" />
        </mxCell>
        <mxCell id="t6gTUN6EhMzDW9SRuxOW-6" value="" style="outlineConnect=0;dashed=0;verticalLabelPosition=bottom;verticalAlign=top;align=center;html=1;shape=mxgraph.aws3.alexa_enabled_device;fillColor=#5294CF;gradientColor=none;" vertex="1" parent="1">
          <mxGeometry x="234.5" y="360" width="79.5" height="79.5" as="geometry" />
        </mxCell>
        <mxCell id="t6gTUN6EhMzDW9SRuxOW-43" style="edgeStyle=orthogonalEdgeStyle;rounded=0;orthogonalLoop=1;jettySize=auto;html=1;" edge="1" parent="1" source="t6gTUN6EhMzDW9SRuxOW-7" target="t6gTUN6EhMzDW9SRuxOW-5">
          <mxGeometry relative="1" as="geometry" />
        </mxCell>
        <mxCell id="t6gTUN6EhMzDW9SRuxOW-44" style="edgeStyle=orthogonalEdgeStyle;rounded=0;orthogonalLoop=1;jettySize=auto;html=1;" edge="1" parent="1" source="t6gTUN6EhMzDW9SRuxOW-7">
          <mxGeometry relative="1" as="geometry">
            <mxPoint x="280" y="260" as="targetPoint" />
          </mxGeometry>
        </mxCell>
        <mxCell id="t6gTUN6EhMzDW9SRuxOW-7" value="&lt;font style=&quot;color: light-dark(rgb(0, 0, 0), rgb(17, 17, 17));&quot;&gt;Node&lt;/font&gt;&lt;div&gt;&lt;font style=&quot;color: light-dark(rgb(0, 0, 0), rgb(17, 17, 17));&quot;&gt;Gateway&lt;/font&gt;&lt;/div&gt;" style="sketch=0;outlineConnect=0;fontColor=#232F3E;gradientColor=none;strokeColor=#232F3E;fillColor=#ffffff;dashed=0;verticalLabelPosition=bottom;verticalAlign=top;align=center;html=1;fontSize=12;fontStyle=0;aspect=fixed;shape=mxgraph.aws4.resourceIcon;resIcon=mxgraph.aws4.alexa_enabled_device;" vertex="1" parent="1">
          <mxGeometry x="160" y="270" width="60" height="60" as="geometry" />
        </mxCell>
        <mxCell id="t6gTUN6EhMzDW9SRuxOW-42" style="edgeStyle=orthogonalEdgeStyle;rounded=0;orthogonalLoop=1;jettySize=auto;html=1;" edge="1" parent="1" source="t6gTUN6EhMzDW9SRuxOW-22" target="t6gTUN6EhMzDW9SRuxOW-7">
          <mxGeometry relative="1" as="geometry" />
        </mxCell>
        <mxCell id="t6gTUN6EhMzDW9SRuxOW-22" value="&lt;font&gt;device A&lt;/font&gt;" style="text;html=1;align=center;verticalAlign=middle;resizable=0;points=[];autosize=1;strokeColor=none;fillColor=none;fontColor=light-dark(#000000,#111111);textShadow=1;fontSize=14;" vertex="1" parent="1">
          <mxGeometry x="69.5" y="200" width="80" height="30" as="geometry" />
        </mxCell>
        <mxCell id="t6gTUN6EhMzDW9SRuxOW-23" value="&lt;font&gt;device B&lt;/font&gt;" style="text;html=1;align=center;verticalAlign=middle;resizable=0;points=[];autosize=1;strokeColor=none;fillColor=none;fontColor=light-dark(#000000,#111111);textShadow=1;fontSize=14;" vertex="1" parent="1">
          <mxGeometry x="239.75" y="200" width="80" height="30" as="geometry" />
        </mxCell>
        <mxCell id="t6gTUN6EhMzDW9SRuxOW-46" style="edgeStyle=orthogonalEdgeStyle;rounded=0;orthogonalLoop=1;jettySize=auto;html=1;" edge="1" parent="1" source="t6gTUN6EhMzDW9SRuxOW-24" target="t6gTUN6EhMzDW9SRuxOW-7">
          <mxGeometry relative="1" as="geometry" />
        </mxCell>
        <mxCell id="t6gTUN6EhMzDW9SRuxOW-24" value="&lt;font&gt;device C&lt;/font&gt;" style="text;html=1;align=center;verticalAlign=middle;resizable=0;points=[];autosize=1;strokeColor=none;fillColor=none;fontColor=light-dark(#000000,#111111);textShadow=1;fontSize=14;" vertex="1" parent="1">
          <mxGeometry x="239.5" y="380" width="80" height="30" as="geometry" />
        </mxCell>
        <mxCell id="t6gTUN6EhMzDW9SRuxOW-25" value="&lt;font&gt;device D&lt;/font&gt;" style="text;html=1;align=center;verticalAlign=middle;resizable=0;points=[];autosize=1;strokeColor=none;fillColor=none;fontColor=light-dark(#000000,#111111);textShadow=1;fontSize=14;" vertex="1" parent="1">
          <mxGeometry x="70" y="380" width="80" height="30" as="geometry" />
        </mxCell>
        <mxCell id="t6gTUN6EhMzDW9SRuxOW-56" value="" style="whiteSpace=wrap;html=1;aspect=fixed;fontColor=none;noLabel=1;fillColor=none;" vertex="1" parent="1">
          <mxGeometry x="44" y="160" width="310.5" height="310.5" as="geometry" />
        </mxCell>
        <mxCell id="t6gTUN6EhMzDW9SRuxOW-57" value="Empresa A" style="text;html=1;align=center;verticalAlign=middle;resizable=0;points=[];autosize=1;strokeColor=none;fillColor=none;fontSize=15;" vertex="1" parent="1">
          <mxGeometry x="144.5" y="160" width="100" height="30" as="geometry" />
        </mxCell>
        <mxCell id="t6gTUN6EhMzDW9SRuxOW-73" value="" style="outlineConnect=0;dashed=0;verticalLabelPosition=bottom;verticalAlign=top;align=center;html=1;shape=mxgraph.aws3.alexa_enabled_device;fillColor=#5294CF;gradientColor=none;textShadow=0;" vertex="1" parent="1">
          <mxGeometry x="836" y="180" width="79.5" height="79.5" as="geometry" />
        </mxCell>
        <mxCell id="t6gTUN6EhMzDW9SRuxOW-74" value="" style="outlineConnect=0;dashed=0;verticalLabelPosition=bottom;verticalAlign=top;align=center;html=1;shape=mxgraph.aws3.alexa_enabled_device;fillColor=#5294CF;gradientColor=none;" vertex="1" parent="1">
          <mxGeometry x="1006" y="180" width="79.5" height="79.5" as="geometry" />
        </mxCell>
        <mxCell id="t6gTUN6EhMzDW9SRuxOW-75" value="" style="outlineConnect=0;dashed=0;verticalLabelPosition=bottom;verticalAlign=top;align=center;html=1;shape=mxgraph.aws3.alexa_enabled_device;fillColor=#5294CF;gradientColor=none;" vertex="1" parent="1">
          <mxGeometry x="836" y="360" width="79.5" height="79.5" as="geometry" />
        </mxCell>
        <mxCell id="t6gTUN6EhMzDW9SRuxOW-76" value="" style="outlineConnect=0;dashed=0;verticalLabelPosition=bottom;verticalAlign=top;align=center;html=1;shape=mxgraph.aws3.alexa_enabled_device;fillColor=#5294CF;gradientColor=none;" vertex="1" parent="1">
          <mxGeometry x="1000.5" y="360" width="79.5" height="79.5" as="geometry" />
        </mxCell>
        <mxCell id="t6gTUN6EhMzDW9SRuxOW-77" style="edgeStyle=orthogonalEdgeStyle;rounded=0;orthogonalLoop=1;jettySize=auto;html=1;" edge="1" parent="1" source="t6gTUN6EhMzDW9SRuxOW-79" target="t6gTUN6EhMzDW9SRuxOW-75">
          <mxGeometry relative="1" as="geometry" />
        </mxCell>
        <mxCell id="t6gTUN6EhMzDW9SRuxOW-78" style="edgeStyle=orthogonalEdgeStyle;rounded=0;orthogonalLoop=1;jettySize=auto;html=1;" edge="1" parent="1" source="t6gTUN6EhMzDW9SRuxOW-79">
          <mxGeometry relative="1" as="geometry">
            <mxPoint x="1046" y="260" as="targetPoint" />
          </mxGeometry>
        </mxCell>
        <mxCell id="t6gTUN6EhMzDW9SRuxOW-79" value="&lt;font style=&quot;color: light-dark(rgb(0, 0, 0), rgb(17, 17, 17));&quot;&gt;Node&lt;/font&gt;&lt;div&gt;&lt;font style=&quot;color: light-dark(rgb(0, 0, 0), rgb(17, 17, 17));&quot;&gt;Gateway&lt;/font&gt;&lt;/div&gt;" style="sketch=0;outlineConnect=0;fontColor=#232F3E;gradientColor=none;strokeColor=#232F3E;fillColor=#ffffff;dashed=0;verticalLabelPosition=bottom;verticalAlign=top;align=center;html=1;fontSize=12;fontStyle=0;aspect=fixed;shape=mxgraph.aws4.resourceIcon;resIcon=mxgraph.aws4.alexa_enabled_device;" vertex="1" parent="1">
          <mxGeometry x="926" y="270" width="60" height="60" as="geometry" />
        </mxCell>
        <mxCell id="t6gTUN6EhMzDW9SRuxOW-80" style="edgeStyle=orthogonalEdgeStyle;rounded=0;orthogonalLoop=1;jettySize=auto;html=1;" edge="1" parent="1" source="t6gTUN6EhMzDW9SRuxOW-81" target="t6gTUN6EhMzDW9SRuxOW-79">
          <mxGeometry relative="1" as="geometry" />
        </mxCell>
        <mxCell id="t6gTUN6EhMzDW9SRuxOW-81" value="&lt;font&gt;device A&lt;/font&gt;" style="text;html=1;align=center;verticalAlign=middle;resizable=0;points=[];autosize=1;strokeColor=none;fillColor=none;fontColor=light-dark(#000000,#111111);textShadow=1;fontSize=14;" vertex="1" parent="1">
          <mxGeometry x="835.5" y="200" width="80" height="30" as="geometry" />
        </mxCell>
        <mxCell id="t6gTUN6EhMzDW9SRuxOW-82" value="&lt;font&gt;device B&lt;/font&gt;" style="text;html=1;align=center;verticalAlign=middle;resizable=0;points=[];autosize=1;strokeColor=none;fillColor=none;fontColor=light-dark(#000000,#111111);textShadow=1;fontSize=14;" vertex="1" parent="1">
          <mxGeometry x="1005.75" y="200" width="80" height="30" as="geometry" />
        </mxCell>
        <mxCell id="t6gTUN6EhMzDW9SRuxOW-83" style="edgeStyle=orthogonalEdgeStyle;rounded=0;orthogonalLoop=1;jettySize=auto;html=1;" edge="1" parent="1" source="t6gTUN6EhMzDW9SRuxOW-84" target="t6gTUN6EhMzDW9SRuxOW-79">
          <mxGeometry relative="1" as="geometry" />
        </mxCell>
        <mxCell id="t6gTUN6EhMzDW9SRuxOW-84" value="&lt;font&gt;device C&lt;/font&gt;" style="text;html=1;align=center;verticalAlign=middle;resizable=0;points=[];autosize=1;strokeColor=none;fillColor=none;fontColor=light-dark(#000000,#111111);textShadow=1;fontSize=14;" vertex="1" parent="1">
          <mxGeometry x="1005.5" y="380" width="80" height="30" as="geometry" />
        </mxCell>
        <mxCell id="t6gTUN6EhMzDW9SRuxOW-85" value="&lt;font&gt;device D&lt;/font&gt;" style="text;html=1;align=center;verticalAlign=middle;resizable=0;points=[];autosize=1;strokeColor=none;fillColor=none;fontColor=light-dark(#000000,#111111);textShadow=1;fontSize=14;" vertex="1" parent="1">
          <mxGeometry x="836" y="380" width="80" height="30" as="geometry" />
        </mxCell>
        <mxCell id="t6gTUN6EhMzDW9SRuxOW-86" value="" style="whiteSpace=wrap;html=1;aspect=fixed;fontColor=none;noLabel=1;fillColor=none;" vertex="1" parent="1">
          <mxGeometry x="810" y="160" width="310.5" height="310.5" as="geometry" />
        </mxCell>
        <mxCell id="t6gTUN6EhMzDW9SRuxOW-87" value="Empresa C" style="text;html=1;align=center;verticalAlign=middle;resizable=0;points=[];autosize=1;strokeColor=none;fillColor=none;fontSize=15;" vertex="1" parent="1">
          <mxGeometry x="910.5" y="160" width="100" height="30" as="geometry" />
        </mxCell>
        <mxCell id="t6gTUN6EhMzDW9SRuxOW-90" value="" style="shape=singleArrow;whiteSpace=wrap;html=1;" vertex="1" parent="1">
          <mxGeometry x="300" y="280" width="195.75" height="40" as="geometry" />
        </mxCell>
        <mxCell id="t6gTUN6EhMzDW9SRuxOW-91" value="" style="shape=singleArrow;direction=west;whiteSpace=wrap;html=1;" vertex="1" parent="1">
          <mxGeometry x="680" y="280" width="180" height="45" as="geometry" />
        </mxCell>
        <mxCell id="t6gTUN6EhMzDW9SRuxOW-95" value="MQTT" style="text;html=1;align=center;verticalAlign=middle;resizable=0;points=[];autosize=1;strokeColor=none;fillColor=none;fontSize=15;" vertex="1" parent="1">
          <mxGeometry x="370" y="259.5" width="70" height="30" as="geometry" />
        </mxCell>
        <mxCell id="t6gTUN6EhMzDW9SRuxOW-96" value="MQTT" style="text;html=1;align=center;verticalAlign=middle;resizable=0;points=[];autosize=1;strokeColor=none;fillColor=none;fontSize=15;" vertex="1" parent="1">
          <mxGeometry x="730" y="259.5" width="70" height="30" as="geometry" />
        </mxCell>
        <mxCell id="t6gTUN6EhMzDW9SRuxOW-97" value="" style="outlineConnect=0;dashed=0;verticalLabelPosition=bottom;verticalAlign=top;align=center;html=1;shape=mxgraph.aws3.alexa_enabled_device;fillColor=#5294CF;gradientColor=none;" vertex="1" parent="1">
          <mxGeometry x="50" y="530" width="79.5" height="79.5" as="geometry" />
        </mxCell>
        <mxCell id="t6gTUN6EhMzDW9SRuxOW-98" value="Hardware esp32&lt;div&gt;IDF 5.5&lt;/div&gt;" style="text;html=1;align=center;verticalAlign=middle;resizable=0;points=[];autosize=1;strokeColor=none;fillColor=none;fontSize=15;" vertex="1" parent="1">
          <mxGeometry x="129.5" y="540" width="130" height="50" as="geometry" />
        </mxCell>
        <mxCell id="t6gTUN6EhMzDW9SRuxOW-99" value="" style="sketch=0;outlineConnect=0;fontColor=#232F3E;gradientColor=none;strokeColor=#232F3E;fillColor=#ffffff;dashed=0;verticalLabelPosition=bottom;verticalAlign=top;align=center;html=1;fontSize=12;fontStyle=0;aspect=fixed;shape=mxgraph.aws4.resourceIcon;resIcon=mxgraph.aws4.alexa_enabled_device;" vertex="1" parent="1">
          <mxGeometry x="59.75" y="660" width="60" height="60" as="geometry" />
        </mxCell>
        <mxCell id="t6gTUN6EhMzDW9SRuxOW-100" value="Hardware ARM/linux" style="text;html=1;align=center;verticalAlign=middle;resizable=0;points=[];autosize=1;strokeColor=none;fillColor=none;fontSize=15;" vertex="1" parent="1">
          <mxGeometry x="132" y="675" width="160" height="30" as="geometry" />
        </mxCell>
        <mxCell id="t6gTUN6EhMzDW9SRuxOW-102" value="" style="image;aspect=fixed;html=1;points=[];align=center;fontSize=12;image=img/lib/azure2/intune/Device_Enrollment.svg;" vertex="1" parent="1">
          <mxGeometry x="475" y="464.59" width="174.97" height="155.41" as="geometry" />
        </mxCell>
        <mxCell id="t6gTUN6EhMzDW9SRuxOW-103" value="Frontend" style="text;html=1;align=center;verticalAlign=middle;resizable=0;points=[];autosize=1;strokeColor=none;fillColor=none;fontSize=15;fontColor=light-dark(#000000,#007FFF);" vertex="1" parent="1">
          <mxGeometry x="498" y="494.59000000000003" width="80" height="30" as="geometry" />
        </mxCell>
        <mxCell id="t6gTUN6EhMzDW9SRuxOW-106" value="" style="shape=doubleArrow;direction=south;whiteSpace=wrap;html=1;" vertex="1" parent="1">
          <mxGeometry x="550" y="376" width="60" height="75" as="geometry" />
        </mxCell>
        <mxCell id="t6gTUN6EhMzDW9SRuxOW-107" style="edgeStyle=orthogonalEdgeStyle;rounded=0;orthogonalLoop=1;jettySize=auto;html=1;exitX=0;exitY=0;exitDx=37.5;exitDy=39;exitPerimeter=0;entryX=0.771;entryY=0.654;entryDx=0;entryDy=0;entryPerimeter=0;" edge="1" parent="1" source="t6gTUN6EhMzDW9SRuxOW-106" target="t6gTUN6EhMzDW9SRuxOW-106">
          <mxGeometry relative="1" as="geometry" />
        </mxCell>
        <mxCell id="t6gTUN6EhMzDW9SRuxOW-108" value="HTTPS" style="text;html=1;align=center;verticalAlign=middle;resizable=0;points=[];autosize=1;strokeColor=none;fillColor=none;fontSize=15;" vertex="1" parent="1">
          <mxGeometry x="600" y="399" width="70" height="30" as="geometry" />
        </mxCell>
        <mxCell id="t6gTUN6EhMzDW9SRuxOW-110" value="" style="image;aspect=fixed;html=1;points=[];align=center;fontSize=12;image=img/lib/azure2/intune/Device_Enrollment.svg;" vertex="1" parent="1">
          <mxGeometry x="1070" y="534.8" width="68" height="60.4" as="geometry" />
        </mxCell>
        <mxCell id="t6gTUN6EhMzDW9SRuxOW-111" value="React | Angular | Grafana" style="text;html=1;align=center;verticalAlign=middle;resizable=0;points=[];autosize=1;strokeColor=none;fillColor=none;fontSize=15;" vertex="1" parent="1">
          <mxGeometry x="870.25" y="547.3" width="190" height="30" as="geometry" />
        </mxCell>
        <mxCell id="t6gTUN6EhMzDW9SRuxOW-112" value="API&amp;nbsp;&lt;div&gt;Go Lang&lt;/div&gt;" style="ellipse;shape=cloud;whiteSpace=wrap;html=1;" vertex="1" parent="1">
          <mxGeometry x="1063.5" y="630" width="81" height="70" as="geometry" />
        </mxCell>
        <mxCell id="t6gTUN6EhMzDW9SRuxOW-113" value="API em Go lang, rabbitMQ&lt;div&gt;Redis, Mqtt&lt;/div&gt;" style="text;html=1;align=center;verticalAlign=middle;resizable=0;points=[];autosize=1;strokeColor=none;fillColor=none;fontSize=15;" vertex="1" parent="1">
          <mxGeometry x="860.5" y="650" width="200" height="50" as="geometry" />
        </mxCell>
      </root>
    </mxGraphModel>
  </diagram>
</mxfile>
